<svg width="90" height="29" viewBox="0 0 90 29" fill="none" xmlns="http://www.w3.org/2000/svg">
<path d="M73.3164 18.6839C73.5733 14.4681 73.7898 10.7988 73.7967 10.5301C73.8006 10.3678 73.8056 10.2046 73.8095 10.0422C74.7583 10.0422 75.7061 10.0422 76.6549 10.0422C77.6036 10.0422 78.5514 10.0422 79.5002 10.0422C79.4992 10.3804 79.4992 10.7186 79.4982 11.0567C79.4962 11.614 79.4241 13.0514 79.3371 14.2499C79.2491 15.4484 79.0633 18.4585 78.924 20.9383C78.7837 23.4182 78.6235 26.1235 78.5692 26.9504C78.5356 27.4509 78.502 27.9523 78.4684 28.4528C77.5246 28.4528 76.5807 28.4528 75.6369 28.4528C74.6931 28.4528 73.7492 28.4528 72.8054 28.4528C72.8123 28.102 72.8202 27.7521 72.8272 27.4013C72.84 26.8224 73.0594 22.8997 73.3164 18.6839Z" fill="#174358"/>
<path d="M0.307149 22.9487C0.761488 15.1211 1.07025 9.33714 1.24828 5.33155C1.33822 3.29166 1.44485 1.46596 1.48472 1.27495C1.50883 1.15905 1.53294 1.04315 1.55704 0.927246C4.92656 0.927246 8.29608 0.927246 11.6656 0.927246C15.0351 0.927246 18.4046 0.927246 21.7742 0.927246C21.7501 1.58372 21.725 2.24112 21.7 2.89759C21.6592 3.98151 21.598 4.95509 21.5646 5.0608C21.5164 5.21193 19.9216 5.25459 14.2822 5.25459C11.8752 5.25459 9.46809 5.25459 7.06103 5.25459C7.03506 5.42149 7.0091 5.58931 6.98314 5.75621C6.93956 6.03253 6.86446 7.1285 6.81439 8.19017C6.76432 9.25276 6.67994 10.7308 6.62709 11.4744C6.59463 11.925 6.56311 12.3756 6.53066 12.8263C8.47504 12.8263 10.4194 12.8263 12.3638 12.8263C14.3073 12.8263 16.2516 12.8263 18.196 12.8263C18.196 13.1017 18.196 13.377 18.196 13.6524C18.196 14.1077 18.1506 15.1128 18.094 15.888C18.0606 16.3581 18.0263 16.8272 17.993 17.2973C16.094 17.3122 14.196 17.327 12.297 17.3418C9.16489 17.3659 6.54549 17.4401 6.47688 17.5078C6.38045 17.6033 5.84451 25.7833 5.80001 27.8556C5.7963 27.9965 5.79352 28.1384 5.79073 28.2803C4.82179 28.2803 3.85377 28.2803 2.88575 28.2803C0.655785 28.2803 -0.0145957 28.2358 0.000239804 28.0874C0.0113665 27.9808 0.149522 25.6683 0.307149 22.9487ZM1.06098 24.7262C0.8709 24.7262 0.886663 25.149 1.07952 25.2668C1.35398 25.4337 1.58671 25.1861 1.3818 24.9441C1.28073 24.8236 1.13609 24.7262 1.06098 24.7262ZM2.09298 25.0415C1.78143 25.2955 1.80554 25.4281 2.21815 25.7573C2.41287 25.9121 2.57142 26.144 2.57142 26.271C2.57142 26.4536 2.73925 26.4917 3.35678 26.449C4.23208 26.3887 4.29605 26.3628 4.14863 26.1273C4.09114 26.0364 3.7833 25.9622 3.46341 25.9622C2.91357 25.9622 2.88297 25.9353 2.8839 25.4634C2.88575 24.9135 2.50095 24.7086 2.09298 25.0415Z" fill="#133D51"/>
<path d="M2.09297 25.0416C2.50095 24.7088 2.88574 24.9137 2.88389 25.4635C2.88296 25.9355 2.91356 25.9624 3.4634 25.9624C3.78329 25.9624 4.09113 26.0365 4.14862 26.1274C4.29605 26.3629 4.23207 26.3889 3.35677 26.4492C2.73924 26.4918 2.57141 26.4538 2.57141 26.2711C2.57141 26.1441 2.41286 25.9123 2.21814 25.7575C1.80553 25.4283 1.78142 25.2957 2.09297 25.0416Z" fill="#174358"/>
<path d="M1.06101 24.7261C1.13612 24.7261 1.28076 24.8234 1.38183 24.944C1.58674 25.186 1.35401 25.4335 1.07955 25.2666C0.886693 25.1489 0.87093 24.7261 1.06101 24.7261Z" fill="#174358"/>
<path d="M47.6483 19.317C47.8476 15.8751 48.0581 12.207 48.1156 11.1658C48.1508 10.5343 48.1851 9.90288 48.2203 9.27237C49.1337 9.27237 50.046 9.27237 50.9594 9.27237C51.8727 9.27237 52.786 9.27237 53.6993 9.27237C53.6696 9.43927 53.6409 9.6071 53.6121 9.77493C53.3831 11.1055 53.2681 12.054 53.3358 12.054C53.3766 12.054 53.8801 11.6192 54.4531 11.0879C56.3196 9.3586 58.1453 8.65299 60.7443 8.65577C64.4792 8.66041 66.966 10.3136 67.769 13.3271C68.0286 14.3025 68.0286 14.6141 67.7634 19.7324C67.6104 22.6911 67.4435 25.8251 67.3916 26.6967C67.361 27.2243 67.3294 27.7528 67.2979 28.2804C66.3846 28.2804 65.4713 28.2804 64.558 28.2804C63.6447 28.2804 62.7314 28.2804 61.818 28.2804C61.8496 27.9327 61.8802 27.585 61.9117 27.2373C62.0832 25.3189 62.3391 20.3434 62.366 18.3897C62.3966 16.2006 62.175 15.2937 61.3776 14.3424C60.6646 13.4912 59.7791 13.1361 58.3706 13.1361C57.3702 13.1361 57.0438 13.2075 56.238 13.6034C55.0985 14.1644 54.1128 15.1704 53.5769 16.322C53.2069 17.1185 53.1671 17.4727 52.888 22.3759C52.7257 25.241 52.5913 27.7417 52.5894 27.9327C52.5857 28.2795 52.5783 28.2804 49.9162 28.2804C49.0261 28.2804 48.136 28.2804 47.2468 28.2804C47.2523 27.8298 47.2597 27.3791 47.2662 26.9285C47.2764 26.1849 47.4489 22.7597 47.6483 19.317Z" fill="#174358"/>
<path d="M22.9406 14.9125C23.1075 12.193 23.2753 9.81093 23.3143 9.61992C23.3838 9.275 23.407 9.27222 26.1432 9.27222C27.063 9.27222 27.9837 9.27222 28.9036 9.27222C28.8702 9.74881 28.8368 10.2254 28.8034 10.702C28.0802 21.0785 28.0783 21.2556 28.6773 22.4184C29.0018 23.0479 29.3013 23.3715 29.8827 23.7202C30.6143 24.1597 30.7469 24.1847 32.3167 24.1838C33.8225 24.1829 34.0543 24.143 34.796 23.7591C36.6755 22.7865 37.268 21.8592 37.51 19.5106C37.6324 18.32 38.1387 10.2235 38.1387 9.45024C38.1387 9.32321 38.9055 9.27222 40.8248 9.27222C41.7205 9.27222 42.6153 9.27222 43.511 9.27222C43.4767 9.72285 43.4433 10.1735 43.409 10.6241C43.2152 13.2073 42.5374 25.736 42.5365 26.7605C42.5356 28.385 42.7321 28.2802 39.6825 28.2802C38.7951 28.2802 37.9078 28.2802 37.0204 28.2802C37.0538 27.9066 37.0872 27.5329 37.1206 27.1602C37.1753 26.5436 37.2485 25.9529 37.2819 25.8463C37.3839 25.5273 37.2031 25.621 36.4382 26.2839C35.523 27.0758 34.0756 27.8713 32.9676 28.1894C31.5647 28.5927 28.8618 28.5232 27.3226 28.0447C25.1845 27.3799 23.5655 25.9131 22.8924 24.0289C22.5178 22.9793 22.5252 21.6812 22.9406 14.9125Z" fill="#174358"/>
<path d="M83.2155 24.3396C83.541 18.8699 84.4599 1.16923 84.4617 0.347708C84.4627 0 84.4645 0 87.2313 0C88.1549 0 89.0774 0 90 0C89.9741 0.502554 89.9472 1.00418 89.9212 1.50673C89.8776 2.33567 89.5791 8.50725 89.2582 15.2222C88.9374 21.9362 88.6426 27.6562 88.6027 27.9325C88.5786 28.1004 88.5545 28.2673 88.5304 28.4351C87.6171 28.4351 86.7038 28.4351 85.7904 28.4351C84.8762 28.4351 83.9629 28.4351 83.0486 28.4351C83.057 28.0874 83.0644 27.7397 83.0728 27.392C83.0857 26.818 83.1506 25.4448 83.2155 24.3396Z" fill="#174358"/>
<path d="M74.0769 1.62233C74.712 0.609807 75.6522 0.154541 77.1061 0.154541C78.7213 0.154541 79.8182 0.880556 80.0166 2.08131C80.3208 3.92277 78.9615 5.24684 76.7676 5.24684C75.5827 5.24684 74.6388 4.88986 74.1251 4.24822C73.6772 3.68725 73.6522 2.2992 74.0769 1.62233Z" fill="#174358"/>
</svg>
