<svg width="68" height="112" viewBox="0 0 68 112" fill="none" xmlns="http://www.w3.org/2000/svg">
<path d="M47.787 37.1663C52.0996 36.93 58.7701 36.1989 62.0576 35.6022C64.0732 35.2367 64.8998 35.0389 66.3226 34.5822C66.886 34.4014 67.3798 34.2861 67.4194 34.326C67.4997 34.4059 66.6569 35.8674 65.943 36.8862C65.7904 37.1041 65.6376 37.322 65.4851 37.5398C65.1376 37.7991 64.7904 38.0588 64.4431 38.318C61.3268 40.6454 58.6389 42.4428 56.6009 43.5621C56.2729 43.7422 55.8803 43.9676 55.7285 44.0627C54.9286 44.5635 52.5306 45.7294 51.2372 46.2461C49.1927 47.0624 47.883 48.1232 48.9195 48.1232C49.2311 48.1232 49.3305 48.1932 49.4432 48.4908C49.5401 48.747 49.6578 48.8508 49.8323 48.8332C49.9958 48.817 50.098 48.8942 50.1274 49.057C50.1917 49.4139 50.6058 50.2573 50.867 50.5631C51.2504 51.0126 52.9486 51.9753 53.5913 52.1075C53.9293 52.1772 54.353 52.2669 54.5332 52.307C54.8286 52.3727 54.9276 52.2856 55.5303 51.4329C56.5713 49.961 58.2498 47.7073 58.46 47.5006C58.5644 47.3978 58.7013 47.3278 58.8795 47.3761C57.0516 49.825 55.2235 52.2734 53.3956 54.7222C53.3948 54.6911 53.3941 54.66 53.3931 54.6288C53.3921 54.5775 52.817 54.7486 52.1156 55.0094C49.945 55.8159 46.6003 56.9119 43.7364 57.7548C40.4952 58.7088 38.7244 59.2925 37.0436 59.9616C31.6512 62.1079 29.0919 64.873 29.0919 68.5533C29.0919 69.5367 29.2056 69.9827 29.7709 71.2173C30.3168 72.4099 30.011 72.1579 29.1582 70.7131C28.7165 69.9645 28.1846 68.8618 27.5963 67.1732C27.5554 66.9969 27.5143 66.8204 27.4734 66.6441C27.2454 65.6602 27.1818 63.7684 27.3406 62.6804C27.6265 60.7221 28.4132 58.6953 29.2569 57.7451C29.6408 57.3125 29.3788 57.1372 28.2145 57.0476C27.634 57.003 27.0978 56.8904 26.9403 56.7801C26.7909 56.6755 26.4549 56.5899 26.1937 56.5899C25.933 56.5899 25.3863 56.4499 24.979 56.2786C24.5717 56.1073 24.1659 55.9673 24.0769 55.9673C23.9879 55.9673 23.7102 55.8281 23.4595 55.658C23.0591 55.3861 22.935 55.3615 22.4347 55.4548C22.1219 55.5134 21.7884 55.6252 21.6942 55.7034C21.5997 55.7818 21.4175 56.2883 21.2891 56.8294C21.161 57.3703 21.0132 57.7899 20.8661 57.7105C20.9319 57.4116 20.9974 57.1131 21.0633 56.8145C21.3262 55.6194 21.8791 54.1311 22.4163 53.1713C22.9308 52.2524 24.4498 50.2553 24.909 49.8947C25.0845 49.7568 25.2283 49.5817 25.2283 49.3683C25.5501 49.4318 25.8724 49.4958 26.1942 49.5593C26.7256 49.6644 27.2583 49.7204 27.5963 49.6173C27.96 49.8088 28.3232 49.9998 28.6869 50.1913C30.2261 51.0016 32.5249 51.8981 34.2271 52.3518C34.7119 52.481 35.1965 52.6103 35.6813 52.7395C37.0578 52.0308 38.4343 51.3221 39.8105 50.6134C40.3506 50.3644 40.8905 50.1154 41.4307 49.8663C41.8358 49.6997 42.2408 49.5329 42.6459 49.3666C43.5183 49.0075 43.817 48.8319 43.5495 48.6212C43.6956 48.6212 43.8414 48.6212 43.9872 48.6212C44.3835 48.6212 46.287 47.8861 48.3479 46.9369C48.7592 46.7476 49.4462 46.4328 50.6536 45.882C50.8717 45.8038 51.0899 45.7259 51.308 45.6474C53.0169 45.0354 56.6705 43.1523 59.2616 41.5476C61.0798 40.422 64.9023 37.5956 65.4711 36.9566C66.2451 36.0876 66.7107 35.2282 66.5141 35.0317C66.4006 34.9187 66.3396 34.956 66.2489 35.1943C66.184 35.3647 65.9717 35.6077 65.7767 35.7339C65.6588 35.8106 65.5407 35.8873 65.4228 35.9638C65.4235 35.8256 65.4243 35.6874 65.4253 35.5489C65.426 35.4107 65.4268 35.2725 65.4275 35.1341C65.1152 35.2018 64.8028 35.2695 64.4905 35.337C62.8129 35.7003 59.2165 36.3162 58.1317 36.426C57.5491 36.485 55.9785 36.6508 54.6419 36.795C53.3053 36.939 51.4824 37.1083 50.5913 37.1713C49.7002 37.2345 48.7889 37.3152 48.161 37.4153C47.9428 37.4094 47.7247 37.4034 47.5066 37.3977C47.2885 37.3919 47.0704 37.386 46.8523 37.38C47.1639 37.3088 47.4755 37.2375 47.787 37.1663ZM24.897 50.3303C24.4122 50.8032 24.3374 50.9272 24.5176 50.963C24.641 50.9874 24.8232 50.9401 24.9227 50.8574C25.0396 50.7606 25.1587 50.7489 25.2594 50.8248C25.3452 50.8893 25.6525 51.0168 25.9424 51.1082C26.2809 51.2148 26.499 51.3677 26.5506 51.5353C26.595 51.679 26.8061 51.9481 27.0203 52.1334C27.3418 52.4123 27.5313 52.4716 28.1108 52.4758C28.5772 52.4793 28.8641 52.5438 28.9673 52.6678C29.2029 52.9514 30.2306 52.9126 30.6217 52.6056C30.7959 52.4686 31.0317 52.3565 31.1459 52.3565C31.4151 52.3565 31.7763 51.9962 31.6327 51.8705C31.5722 51.8172 31.3259 51.6996 31.0861 51.609C30.8463 51.5181 29.9591 51.1164 29.1151 50.7162C27.4946 49.9478 26.8635 49.7498 26.0187 49.7448C25.5673 49.7423 25.423 49.8178 24.897 50.3303ZM27.7112 62.1117C27.5146 62.8361 27.4789 63.2925 27.5206 64.5585C27.5659 65.9411 27.6203 66.2539 28.0069 67.36C28.7397 69.4572 28.7701 69.4799 28.8925 68.0139C29.0685 65.904 29.7565 64.4818 31.3132 63.0081C33.4923 60.9452 36.5234 59.5923 43.6118 57.5187C46.6666 56.6252 47.3543 56.3797 47.3219 56.1947C47.3057 56.1038 47.4625 55.9327 47.6704 55.8142C48.2145 55.5037 47.9979 55.1991 47.0243 54.9045C46.3071 54.6876 46.0768 54.532 45.0942 53.6011C44.9501 53.4644 44.7931 53.3526 44.7455 53.3526C44.5742 53.3526 44.048 52.6887 44.048 52.4726C44.048 52.3506 43.9079 52.0846 43.7364 51.8812C43.5649 51.6777 43.4249 51.4598 43.4249 51.3971C43.4249 51.3341 43.2686 51.1672 43.0774 51.0263C42.7753 50.8031 42.7361 50.702 42.779 50.2556C42.8311 49.7082 42.6738 49.6004 42.2079 49.8643C42.0888 49.9316 41.4035 50.2426 40.6849 50.5549C39.1741 51.2118 36.2911 52.6902 34.9824 53.4794C33.4085 54.4284 31.3179 56.1175 30.3981 57.1825C29.0334 58.7633 28.2095 60.2749 27.7112 62.1117Z" fill="white"/>
<path d="M53.3955 54.7221C47.6334 61.7315 41.8242 69.0017 41.1205 70.0841C39.4123 72.7128 38.7934 74.7092 38.5003 78.5386C38.4315 79.4358 38.3629 79.6958 38.1184 79.9859C38.0192 80.104 37.9197 80.2218 37.8205 80.3398C36.5839 80.36 35.3473 80.3801 34.1106 80.4003C30.1498 80.4648 29.8422 80.4289 29.4862 79.8599C29.3962 79.7155 29.2412 78.7491 29.142 77.7121C29.0428 76.675 28.8536 75.3716 28.7215 74.816C28.2466 72.8179 27.1565 70.7744 25.1193 68.0646C24.865 67.7259 24.6103 67.3873 24.3558 67.0486C24.5248 67.0486 24.9286 67.5108 25.3623 68.0758C26.3624 69.3787 27.3517 70.4061 27.6082 70.4084C27.9221 70.4114 28.2591 69.9591 28.1835 69.6367C28.1469 69.48 27.9699 68.9347 27.7899 68.4244C27.6102 67.9144 27.4931 67.4241 27.5297 67.335C27.5519 67.2809 27.5741 67.2271 27.5963 67.1731C28.1845 68.8617 28.7165 69.9644 29.1582 70.7129C30.0109 72.1577 30.3168 72.4097 29.7709 71.2172C29.2055 69.9825 29.0919 69.5366 29.0919 68.5532C29.0919 64.8729 31.6511 62.1078 37.0435 59.9615C38.7243 59.2924 40.4951 58.7087 43.7364 57.7547C46.6002 56.9117 49.9449 55.8158 52.1155 55.0092C52.817 54.7485 53.392 54.5774 53.393 54.6287C53.394 54.6598 53.3948 54.691 53.3955 54.7221ZM38.1872 75.4139C38.1216 75.2556 38.0092 75.1622 37.9374 75.2062C37.8554 75.2568 37.815 75.133 37.8282 74.8718C37.8399 74.6437 37.7891 74.3083 37.7158 74.1265C37.5939 73.8249 37.5299 73.799 36.9825 73.8312C36.6527 73.8506 35.9904 73.9641 35.5105 74.0842C35.0307 74.2039 34.2455 74.3085 33.7656 74.317C32.9515 74.3314 32.8907 74.314 32.8536 74.0535C32.8052 73.7134 33.4012 73.3605 33.568 73.6307C33.6405 73.7472 33.893 73.7612 34.583 73.6857C35.4821 73.5876 35.504 73.5769 35.618 73.1795C35.7127 72.8488 35.6905 72.7257 35.4981 72.5131C35.1224 72.0987 34.5596 71.8552 33.9351 71.837C33.3115 71.8186 32.2386 71.5643 31.9951 71.3766C31.7638 71.198 31.5656 71.3938 31.6085 71.7583C31.6357 71.9912 31.5833 72.0992 31.4288 72.1294C31.2789 72.1582 31.2106 72.093 31.2106 71.9209C31.2106 71.6064 31.0117 71.4697 30.916 71.7185C30.8248 71.956 30.5875 71.961 30.5875 71.7249C30.5875 71.5262 30.3611 71.342 30.2517 71.4515C30.2131 71.4899 30.4354 71.9296 30.7458 72.4289C31.2189 73.1902 31.7092 74.1668 31.7092 74.3476C31.7092 74.3735 31.6307 74.3947 31.5347 74.3947C31.3477 74.3947 30.4628 73.5682 30.4628 73.3936C30.4628 73.1473 30.1742 73.1431 29.9162 73.3854C29.6659 73.62 29.6126 73.6285 29.3957 73.4646C29.0492 73.2029 28.6848 73.2188 28.7656 73.492C29.0692 74.5194 29.3419 76.0469 29.4154 77.1339C29.5074 78.4963 29.5473 79.0026 29.5742 79.1527C29.5832 79.2018 29.7646 79.4398 29.9773 79.6819C30.1064 79.8288 30.235 79.9755 30.3639 80.1221C31.3153 80.1221 32.2665 80.1221 33.2178 80.1221C35.4076 80.1221 36.0759 80.086 36.0903 79.9665C36.1008 79.8808 36.115 79.7294 36.1217 79.6301C36.129 79.525 36.3563 79.3943 36.6621 79.3188C37.223 79.1801 37.6151 78.7734 37.4935 78.4564C37.391 78.1905 37.6739 77.3598 37.9434 77.1339C38.2094 76.9113 38.3616 75.835 38.1872 75.4139ZM37.3673 72.6919C37.1377 72.6037 36.8982 72.9046 37.0652 73.0716C37.2013 73.2076 37.567 73.0828 37.567 72.9006C37.567 72.8279 37.477 72.734 37.3673 72.6919ZM38.0032 74.6437C37.9688 74.6437 37.9409 74.6716 37.9409 74.706C37.9409 74.7403 37.9688 74.7682 38.0032 74.7682C38.0376 74.7682 38.0655 74.7403 38.0655 74.706C38.0655 74.6716 38.0376 74.6437 38.0032 74.6437Z" fill="white"/>
<path d="M23.0457 7.43284C23.6918 6.66611 23.7272 6.66138 29.0236 6.66138C34.2994 6.66138 34.2318 6.65266 34.8725 7.41367C34.9814 7.54266 35.0901 7.6719 35.199 7.80115C35.199 9.48253 35.199 11.1644 35.199 12.846C35.199 17.8078 35.1945 17.8972 34.931 18.2667C34.4293 18.9709 34.2907 18.9879 29.0296 18.9879C23.7578 18.9879 23.6883 18.9792 23.0724 18.248C22.9602 18.1148 22.8478 17.9816 22.7356 17.8481C22.7356 16.1737 22.7356 14.499 22.7356 12.8246C22.7356 11.1502 22.7356 9.47556 22.7356 7.80115C22.8388 7.67838 22.9422 7.55561 23.0457 7.43284Z" fill="white"/>
<path d="M27.7112 62.1115C28.2094 60.2748 29.0333 58.7632 30.398 57.1824C31.3178 56.1174 33.4084 54.4283 34.9823 53.4793C36.291 52.6901 39.174 51.2117 40.6848 50.5548C41.4035 50.2425 42.0887 49.9315 42.2078 49.8642C42.6737 49.6003 42.831 49.7081 42.7789 50.2554C42.736 50.7019 42.7752 50.803 43.0773 51.0262C43.2685 51.1671 43.4248 51.3339 43.4248 51.3969C43.4248 51.4597 43.5649 51.6776 43.7364 51.881C43.9079 52.0845 44.0479 52.3504 44.0479 52.4725C44.0479 52.6886 44.5741 53.3525 44.7454 53.3525C44.793 53.3525 44.95 53.4643 45.0941 53.601C46.0767 54.5319 46.3071 54.6875 47.0242 54.9044C47.9978 55.199 48.2145 55.5035 47.6703 55.8141C47.4624 55.9326 47.3056 56.1037 47.3218 56.1946C47.3542 56.3796 46.6665 56.6251 43.6117 57.5186C36.5233 59.5922 33.4922 60.9451 31.3131 63.008C29.7564 64.4817 29.0684 65.9039 28.8924 68.0138C28.77 69.4798 28.7396 69.4571 28.0068 67.3599C27.6202 66.2537 27.5658 65.941 27.5205 64.5584C27.4788 63.2924 27.5145 62.8359 27.7112 62.1115Z" fill="white"/>
<path d="M15.1328 55.5935C11.9021 51.7733 7.09469 45.173 4.18249 40.5589C3.67797 39.7598 3.1737 38.9612 2.66943 38.1621C2.91097 38.1666 3.44366 38.5867 4.00925 39.0989C4.35199 39.409 4.69474 39.7195 5.03748 40.0298C7.61815 42.1693 10.5418 44.0818 13.2633 45.4101C16.0798 46.7847 17.6362 47.3669 21.2088 48.3831C21.9254 48.5868 22.642 48.7908 23.3587 48.9945C23.9819 49.119 24.605 49.2435 25.2282 49.368C25.2282 49.5814 25.0844 49.7565 24.9089 49.8944C24.4497 50.255 22.9307 52.2522 22.4162 53.171C21.879 54.1308 21.3262 55.6192 21.0632 56.8142C20.9974 57.1128 20.9318 57.4114 20.866 57.7102C19.5621 57.2121 18.6787 56.7724 18.0617 56.4118C16.3916 55.4361 14.8968 54.6674 14.8195 54.7446C14.7819 54.782 14.837 54.9884 14.9421 55.2033C15.0057 55.3333 15.0693 55.4635 15.1328 55.5935Z" fill="white"/>
<path d="M4.16504 35.4231C7.45214 36.0402 11.8594 36.6348 16.1115 37.0353C16.5746 37.0788 17.0377 37.1227 17.5009 37.1662C17.4697 37.1687 17.4386 37.171 17.4074 37.1735C17.3182 37.1799 17.4286 37.3968 17.9431 38.2246C18.071 38.43 18.3115 38.8782 18.4783 39.2207C19.156 40.6142 21.5413 43.9306 23.3587 46.0064C23.8158 46.5045 24.2725 47.0025 24.7297 47.5006C24.6726 47.5006 24.6153 47.5006 24.5582 47.5006C24.2822 47.5006 22.5077 45.6777 21.4366 44.2939C20.5268 43.1186 20.1012 42.7189 20.2939 43.2207C20.3368 43.3322 20.3039 43.5053 20.2207 43.6054C20.1374 43.7055 20.0509 44.1004 20.0285 44.4829C20.0063 44.8654 19.9265 45.2522 19.8515 45.3426C19.7767 45.433 19.7007 45.9133 19.6825 46.4104C19.6645 46.9072 19.6291 47.387 19.6037 47.4767C19.5539 47.6525 20.117 47.8875 21.1681 48.1303C22.5022 48.4381 23.3587 48.776 23.3587 48.9947C22.642 48.791 21.9254 48.587 21.2087 48.3833C17.6362 47.3671 16.0798 46.7849 13.2633 45.4103C10.5418 44.082 7.61815 42.1695 5.03748 40.03C4.8924 39.8564 4.74758 39.6833 4.60251 39.5098C4.06359 38.8651 4.13687 38.7129 4.69947 39.3086C6.02234 40.71 10.2454 43.5927 10.5418 43.2966C10.6333 43.2052 10.5859 43.1193 10.3843 43.0115C9.99592 42.8038 9.65816 42.3845 9.65318 42.1038C9.65068 41.9776 9.54948 41.8483 9.42784 41.8167C9.30645 41.7848 9.14517 41.5617 9.06964 41.3206C8.95273 40.9471 8.9652 40.8515 9.15514 40.6742C9.3401 40.5016 9.36079 40.3699 9.27554 39.906C9.20824 39.5396 9.2182 39.318 9.30395 39.265C9.45227 39.1733 9.76884 38.3317 9.77183 38.0211C9.77283 37.9096 9.89297 37.7865 10.039 37.7484C10.229 37.6989 10.2811 37.6182 10.2218 37.4638C10.1517 37.2815 10.2305 37.2412 10.7352 37.2021C11.7346 37.1249 11.8066 37.1092 11.8577 36.9571C11.8891 36.8639 11.6875 36.7815 11.3078 36.7317C5.6943 35.9976 4.24381 35.7319 4.16504 35.4231Z" fill="white"/>
<path d="M39.345 0.821269C39.4295 0.656667 39.6571 0.404659 39.8508 0.260974C40.1915 0.0082187 40.3339 0 44.3596 0C48.3852 0 48.5276 0.0082187 48.8683 0.260974C49.5142 0.740089 49.5281 0.836457 49.5299 4.89324C49.5319 8.9839 49.5147 9.10218 48.8319 9.63857C48.5116 9.89033 48.371 9.89855 44.3384 9.89855C39.7144 9.89855 39.704 9.8968 39.3572 9.06782C39.1242 8.51051 39.1132 1.2715 39.345 0.821269Z" fill="white"/>
<path d="M24.3558 67.0484C20.2451 62.1258 16.2329 57.1865 15.6002 56.2706C15.4444 56.0447 15.2886 55.8191 15.1328 55.5935C15.0693 55.4635 15.0057 55.3333 14.9422 55.2033C14.837 54.9884 14.7819 54.782 14.8195 54.7446C14.8968 54.6674 16.3917 55.4361 18.0617 56.4118C18.6787 56.7724 19.5621 57.2121 20.866 57.7102C21.0131 57.7896 21.1609 57.37 21.289 56.8292C21.4174 56.288 21.5996 55.7815 21.6941 55.7031C21.7883 55.6249 22.1218 55.5131 22.4347 55.4546C22.9349 55.3612 23.0591 55.3858 23.4594 55.6578C23.7102 55.8278 23.9879 55.967 24.0768 55.967C24.1658 55.967 24.5716 56.107 24.9789 56.2783C25.3862 56.4496 25.9329 56.5896 26.1936 56.5896C26.4549 56.5896 26.7909 56.6753 26.9402 56.7798C27.0977 56.8902 27.6339 57.0027 28.2144 57.0473C29.3788 57.1369 29.6408 57.3123 29.2569 57.7448C28.4131 58.6951 27.6264 60.7218 27.3405 62.6801C27.1817 63.7681 27.2453 65.6599 27.4734 66.6438C27.5142 66.8201 27.5554 66.9966 27.5963 67.1729C27.5741 67.227 27.5519 67.2808 27.5297 67.3348C27.4931 67.424 27.6102 67.9143 27.7899 68.4243C27.9699 68.9345 28.1469 69.4799 28.1835 69.6365C28.2591 69.959 27.9221 70.4112 27.6082 70.4082C27.3517 70.406 26.3624 69.3785 25.3623 68.0756C24.9286 67.5106 24.5248 67.0484 24.3558 67.0484Z" fill="white"/>
<path d="M48.1609 37.4151C48.7889 37.315 49.7002 37.2343 50.5913 37.1711C51.4824 37.1081 53.3053 36.9387 54.6419 36.7948C55.9785 36.6506 57.5491 36.4848 58.1317 36.4258C59.2165 36.3159 62.8129 35.7001 64.4905 35.3368C64.8028 35.2693 65.1152 35.2016 65.4275 35.1338C65.4268 35.2723 65.426 35.4105 65.4253 35.5487C65.4243 35.6872 65.4235 35.8254 65.4228 35.9636C65.5407 35.8871 65.6588 35.8104 65.7767 35.7337C65.9717 35.6075 66.184 35.3644 66.2488 35.1941C66.3396 34.9558 66.4006 34.9184 66.5141 35.0315C66.7107 35.228 66.2451 36.0873 65.4711 36.9564C64.9023 37.5954 61.0798 40.4218 59.2616 41.5473C56.6705 43.152 53.0169 45.0351 51.308 45.6472C51.0899 45.7257 50.8717 45.8036 50.6536 45.8818C50.4283 45.8818 50.4116 45.629 50.4679 45.1036C50.5397 44.4332 50.5163 44.2806 50.2992 44.0049C50.108 43.7621 50.0546 43.5323 50.0788 43.0552C50.1072 42.4941 50.027 41.5025 49.8567 40.3072C49.8006 39.9135 49.6603 39.7024 48.7016 38.5668C48.3673 38.1711 48.2886 37.9973 48.3883 37.8773C48.4852 37.7605 48.4725 37.6756 48.3412 37.566C48.2811 37.5157 48.221 37.4654 48.1609 37.4151Z" fill="white"/>
<path d="M38.4395 41.5241C39.7386 41.5241 39.5679 41.7253 40.4999 39.0962C40.6764 38.5981 40.8531 38.1001 41.0296 37.602C42.1558 37.5296 43.2822 37.4566 44.4084 37.3842C45.5344 37.3117 46.6608 37.2387 47.787 37.1663C47.4754 37.2375 47.1638 37.3087 46.8523 37.3799C47.0704 37.3859 47.2885 37.3919 47.5066 37.3976C47.7247 37.4033 47.9428 37.4093 48.1609 37.4153C48.221 37.4656 48.2811 37.5159 48.3411 37.5662C48.4725 37.6758 48.4852 37.7607 48.3882 37.8775C48.2885 37.9975 48.3673 38.1713 48.7016 38.567C49.6603 39.7025 49.8006 39.9137 49.8567 40.3074C50.0269 41.5027 50.1072 42.4943 50.0788 43.0553C50.0546 43.5325 50.1079 43.7623 50.2991 44.0051C50.5162 44.2808 50.5397 44.4334 50.4679 45.1038C50.4116 45.6292 50.4283 45.882 50.6536 45.882C49.4461 46.4328 48.7592 46.7476 48.3479 46.9368C46.2869 47.8861 44.3835 48.6212 43.9872 48.6212C43.8413 48.6212 43.6955 48.6212 43.5495 48.6212C43.3002 48.6212 43.0509 48.6212 42.8016 48.6212C42.3991 48.5328 41.9968 48.4444 41.5944 48.356C40.9301 48.21 39.9206 47.9299 38.3148 47.3761C38.5329 47.4217 38.751 47.467 38.9691 47.5125C39.6965 47.6642 40.2499 47.7939 40.9945 47.9867C42.0067 48.2489 43.6741 48.4942 43.6741 48.3806C43.6741 48.3171 43.548 48.2459 43.3937 48.2223C43.2394 48.1986 43.1292 48.1047 43.1489 48.0136C43.1683 47.9227 43.1237 47.7748 43.0494 47.6854C42.9522 47.5683 42.9529 47.4988 43.0524 47.4373C43.1287 47.3905 43.2448 47.2102 43.3106 47.0374C43.4472 46.6781 43.294 46.4188 42.8435 46.2478C42.591 46.1519 42.3535 45.751 41.9065 44.6685C41.7639 44.3229 41.6695 43.4851 41.6737 42.6014C41.6754 42.2273 41.6219 42.1083 41.4287 42.0578C41.2714 42.0167 41.1814 41.8874 41.1814 41.7037C41.1814 41.5445 41.1251 41.3797 41.0565 41.3371C40.9877 41.2948 40.81 40.9972 40.6612 40.6759C40.5712 40.4815 40.4812 40.2867 40.3912 40.0922C40.2898 40.3537 40.1888 40.6149 40.0876 40.8764C39.9864 41.1376 39.8855 41.3991 39.784 41.6603C39.3358 41.615 38.8876 41.5697 38.4395 41.5241Z" fill="white"/>
<path d="M13.0333 23.6137C13.6877 22.9745 14.0521 22.9322 18.0593 23.031C22.1221 23.1311 22.2281 23.1563 22.4811 24.067C22.5554 24.3334 22.6097 26.0315 22.6102 28.0896C22.611 31.5911 22.6062 31.6581 22.3268 32.0722C21.8285 32.8108 21.8008 32.815 17.6199 32.7789C12.3062 32.7328 12.7175 33.1442 12.6649 27.8237C12.6522 26.5524 12.6397 25.2814 12.627 24.0104C12.7626 23.8782 12.898 23.746 13.0333 23.6137Z" fill="white"/>
<path d="M24.7297 47.5004C24.2725 47.0024 23.8159 46.5044 23.3587 46.0063C22.9434 45.3838 22.5276 44.7612 22.1124 44.1387C23.5763 44.4355 24.1202 44.5809 24.6674 44.8222C24.9867 44.9629 25.5712 45.0085 27.347 45.0309C27.5185 45.0329 28.4717 44.9689 29.4658 44.8887C30.8268 44.7784 31.3305 44.6908 31.506 44.5339C31.6342 44.4193 31.7321 44.2834 31.7241 44.2321C31.7189 44.2009 31.7142 44.1698 31.7092 44.1387C31.9585 44.2218 32.2077 44.3045 32.457 44.3877C34.51 45.7282 35.9021 46.4797 37.2866 46.9939C37.6293 47.1214 37.9721 47.2484 38.3148 47.3759C39.9206 47.9298 40.9301 48.2099 41.5944 48.3558C41.9967 48.4442 42.3991 48.5326 42.8016 48.621C42.5524 48.621 42.3031 48.621 42.0538 48.621C41.6532 48.5384 41.2527 48.4552 40.8521 48.3725C40.4515 48.2898 40.0509 48.2067 39.6504 48.1237C39.4714 48.2888 39.2924 48.4534 39.1134 48.6183C38.5486 49.1383 37.2018 50.0606 36.1404 50.654C35.7939 50.8478 35.4537 51.0784 35.3841 51.167C35.3146 51.2554 35.0756 51.3675 34.8532 51.4163C34.3918 51.5176 34.1186 51.8854 34.3602 52.0799C34.4447 52.1477 34.7934 52.2617 35.1354 52.3332C35.7548 52.4629 35.763 52.4604 37.3092 51.6606C38.163 51.2191 39.0753 50.8027 39.8104 50.6132C38.4342 51.3219 37.0577 52.0306 35.6813 52.7393C35.1964 52.6101 34.7119 52.4808 34.227 52.3516C32.5248 51.8979 30.226 51.0014 28.6868 50.1911C28.3231 49.9996 27.9599 49.8086 27.5963 49.6171C26.6406 48.9114 25.6854 48.2062 24.7297 47.5004Z" fill="white"/>
<path d="M8.52779 11.8471C9.04327 11.4136 9.5099 11.3693 13.0363 11.4148C15.9305 11.4524 16.133 11.4704 16.4637 11.7159C17.1046 12.1918 17.1233 12.3138 17.1253 16.0471C17.1258 17.2043 17.1265 18.3615 17.127 19.5187C16.9787 19.6584 16.8304 19.7983 16.6818 19.938C16.5338 20.0777 16.3852 20.2174 16.2369 20.3574C15.0382 20.3574 13.8392 20.3574 12.6402 20.3574C11.4412 20.3574 10.2423 20.3574 9.04352 20.3574C8.89521 20.2174 8.74664 20.0777 8.59858 19.938C8.45001 19.7983 8.3017 19.6584 8.15338 19.5187C8.15338 18.2925 8.15338 17.0663 8.15338 15.8404C8.15338 14.6142 8.15338 13.3881 8.15338 12.1619C8.27826 12.057 8.40315 11.952 8.52779 11.8471Z" fill="white"/>
<path d="M50.7991 18.5537C51.3049 17.9115 51.5945 17.8672 55.2989 17.8672C56.4346 17.8672 57.5703 17.8672 58.7059 17.8672C58.8388 18.0041 58.9716 18.1409 59.1042 18.2778C59.2369 18.4148 59.3697 18.5515 59.5026 18.6885C59.5026 19.8763 59.5026 21.0644 59.5026 22.2527C59.5026 23.4408 59.5026 24.6286 59.5026 25.8167C59.3747 25.9444 59.2471 26.0722 59.1192 26.1999C58.9911 26.3274 58.8635 26.4551 58.7356 26.5829C57.5528 26.5829 56.3698 26.5829 55.187 26.5829C52.2093 26.5829 51.5776 26.5515 51.2608 26.3879C50.589 26.041 50.5289 25.6902 50.5289 22.1214C50.5289 19.0022 50.5377 18.8857 50.7991 18.5537Z" fill="white"/>
<path d="M65.4851 37.5398C62.5469 42.0682 61.0606 44.2815 60.2866 45.3797C59.8177 46.0451 59.3486 46.7105 58.8795 47.3761C58.7012 47.3278 58.5644 47.3978 58.4599 47.5006C58.2498 47.7073 56.5712 49.9609 55.5303 51.4329C54.9276 52.2855 54.8286 52.3727 54.5332 52.3069C54.353 52.2668 53.9292 52.1772 53.5912 52.1075C52.9486 51.9752 51.2504 51.0125 50.867 50.563C50.6058 50.2572 50.1917 49.4138 50.1274 49.057C50.098 48.8941 49.9958 48.8169 49.8323 48.8331C49.6578 48.8508 49.5401 48.7469 49.4432 48.4907C49.3305 48.1931 49.231 48.1231 48.9195 48.1231C47.883 48.1231 49.1926 47.0623 51.2371 46.246C52.5306 45.7293 54.9286 44.5634 55.7285 44.0626C55.8803 43.9675 56.2729 43.7421 56.6009 43.5621C58.6389 42.4427 61.3268 40.6453 64.4431 38.318C64.7904 38.0588 65.1376 37.799 65.4851 37.5398Z" fill="white"/>
<path d="M50.6224 30.2802C50.7498 30.2085 53.6246 30.3901 56.1998 30.6326C62.2809 31.2053 66.3585 32.1123 67.5103 33.1487C67.8349 33.4405 67.7835 33.5451 67.185 33.8096C65.6072 34.5066 60.4109 35.2716 54.1433 35.7295C52.7379 35.8319 51.35 35.9439 51.0586 35.9783C50.8821 35.999 50.7054 36.0199 50.5289 36.0408C50.5289 35.0896 50.5289 34.1383 50.5289 33.1868C50.5289 31.617 50.5711 30.3091 50.6224 30.2802Z" fill="white"/>
<path d="M38.1872 75.4139C38.3617 75.835 38.2094 76.9113 37.9434 77.1339C37.674 77.3598 37.3911 78.1905 37.4935 78.4564C37.6152 78.7734 37.223 79.1801 36.6622 79.3188C36.3563 79.3942 36.129 79.525 36.1218 79.6301C36.1151 79.7294 36.1008 79.8808 36.0904 79.9665C36.0759 80.086 35.4076 80.1221 33.2178 80.1221C32.2666 80.1221 31.3154 80.1221 30.3639 80.1221C30.2351 79.9755 30.1064 79.8288 29.9773 79.6819C29.7647 79.4398 29.5832 79.2018 29.5743 79.1527C29.5473 79.0025 29.5075 78.4963 29.4155 77.1339C29.3419 76.0469 29.0692 74.5194 28.7656 73.492C28.6849 73.2188 29.0493 73.2029 29.3958 73.4646C29.6126 73.6284 29.666 73.62 29.9163 73.3854C30.1742 73.1431 30.4629 73.1473 30.4629 73.3936C30.4629 73.5682 31.3478 74.3947 31.5347 74.3947C31.6307 74.3947 31.7092 74.3735 31.7092 74.3476C31.7092 74.1668 31.2189 73.1902 30.7458 72.4289C30.4355 71.9296 30.2131 71.4899 30.2518 71.4515C30.3612 71.3419 30.5875 71.5262 30.5875 71.7249C30.5875 71.961 30.8248 71.956 30.9161 71.7185C31.0118 71.4697 31.2107 71.6064 31.2107 71.9209C31.2107 72.093 31.279 72.1582 31.4288 72.1293C31.5834 72.0992 31.6357 71.9911 31.6085 71.7583C31.5657 71.3937 31.7638 71.198 31.9952 71.3766C32.2387 71.5643 33.3115 71.8186 33.9352 71.837C34.5596 71.8552 35.1225 72.0987 35.4981 72.5131C35.6906 72.7257 35.7127 72.8488 35.618 73.1795C35.5041 73.5769 35.4822 73.5876 34.583 73.6857C33.8931 73.7612 33.6406 73.7472 33.568 73.6307C33.4013 73.3605 32.8053 73.7134 32.8536 74.0535C32.8908 74.314 32.9516 74.3314 33.7657 74.317C34.2455 74.3085 35.0307 74.2039 35.5106 74.0841C35.9904 73.9641 36.6527 73.8506 36.9825 73.8311C37.5299 73.799 37.594 73.8249 37.7158 74.1265C37.7891 74.3083 37.84 74.6437 37.8283 74.8718C37.8151 75.133 37.8554 75.2568 37.9375 75.2062C38.0092 75.1621 38.1217 75.2555 38.1872 75.4139Z" fill="white"/>
<path d="M29.5904 41.5242C32.5402 41.5242 35.4898 41.5242 38.4394 41.5242C38.8876 41.5697 39.3358 41.615 39.784 41.6604C39.8854 41.3991 39.9864 41.1377 40.0876 40.8764C40.1888 40.615 40.2897 40.3538 40.3912 40.0923C40.4812 40.2868 40.5712 40.4815 40.6611 40.676C40.81 40.9972 40.9877 41.2948 41.0565 41.3371C41.125 41.3797 41.1814 41.5446 41.1814 41.7037C41.1814 41.8875 41.2713 42.0167 41.4286 42.0578C41.6218 42.1084 41.6754 42.2274 41.6737 42.6014C41.6694 43.4852 41.7639 44.3229 41.9065 44.6685C42.3534 45.751 42.591 46.1519 42.8435 46.2478C43.2939 46.4189 43.4472 46.6781 43.3106 47.0375C43.2448 47.2103 43.1286 47.3906 43.0524 47.4374C42.9529 47.4989 42.9522 47.5684 43.0494 47.6854C43.1237 47.7748 43.1683 47.9227 43.1488 48.0136C43.1291 48.1048 43.2393 48.1986 43.3936 48.2223C43.5479 48.246 43.674 48.3172 43.674 48.3807C43.674 48.4942 42.0067 48.2489 40.9944 47.9867C40.2498 47.794 39.6965 47.6642 38.9691 47.5126C38.751 47.467 38.5329 47.4217 38.3148 47.3761C37.972 47.2486 37.6293 47.1216 37.2865 46.9941C35.9021 46.4799 34.5099 45.7284 32.457 44.3879C31.1531 43.2586 30.5079 42.6141 30.1824 42.2274C29.9852 41.9928 29.7876 41.7587 29.5904 41.5242Z" fill="white"/>
<path d="M17.5009 37.1663C20.9301 37.3612 22.9739 37.4539 24.2554 37.4982C25.5368 37.5425 26.6341 37.6118 26.694 37.6526C26.8804 37.7793 27.6302 39.1729 28.1073 40.279C28.5552 41.3177 28.5734 41.3391 29.077 41.4307C29.2482 41.4619 29.4192 41.493 29.5905 41.5241C29.7876 41.7587 29.9853 41.9928 30.1825 42.2273C30.508 42.6141 31.1531 43.2585 32.457 44.3878C32.2078 44.3047 31.9585 44.222 31.7092 44.1388C31.6287 44.0492 31.5482 43.9595 31.4677 43.8699C31.2329 43.6084 31.2114 43.6067 30.6887 43.8059C30.1909 43.9954 30.0364 43.9956 28.5934 43.8081C27.7364 43.6968 26.6989 43.5907 26.2876 43.5721C25.2592 43.5257 23.6806 43.2366 23.4634 43.0548C23.3647 42.9722 23.0497 42.8673 22.763 42.8213C22.4761 42.7757 22.1777 42.6609 22.0994 42.567C21.9372 42.3718 21.0438 42.3334 20.9301 42.5172C20.889 42.5837 21.138 42.9759 22.1124 44.1388C22.5277 44.7614 22.9435 45.3839 23.3587 46.0065C21.5413 43.9306 19.1561 40.6142 18.4783 39.2207C18.3116 38.8783 18.071 38.43 17.9431 38.2246C17.4287 37.3969 17.3182 37.18 17.4075 37.1735C17.4386 37.171 17.4698 37.1687 17.5009 37.1663ZM24.7614 38.121C24.5727 38.3785 24.5734 38.3685 24.734 38.6686C24.807 38.8046 24.9939 38.9094 25.1639 38.9094C25.3614 38.9094 25.5795 39.0596 25.7988 39.3469C25.9825 39.5875 26.2762 39.8203 26.4512 39.8641C26.6262 39.908 26.9121 40.0178 27.0865 40.1082C27.5888 40.3687 27.6863 40.1109 27.2974 39.5504C27.0654 39.2154 26.8889 39.0792 26.7388 39.1183C26.6182 39.15 26.4464 39.0877 26.3572 38.9804C26.2236 38.8195 26.2246 38.749 26.3619 38.5837C26.5058 38.4106 26.4793 38.3401 26.1685 38.0732C25.8784 37.8237 25.7208 37.7774 25.3626 37.8356C25.1178 37.8752 24.8471 38.0037 24.7614 38.121Z" fill="white"/>
<path d="M40.7766 26.3454C41.2582 25.8646 41.7465 25.8018 44.5926 25.8551C45.3649 25.8695 46.1369 25.8837 46.9093 25.8982C47.0245 26.0132 47.1394 26.1285 47.2546 26.2436C47.3697 26.3586 47.4849 26.4734 47.6001 26.5885C47.6001 27.5457 47.6001 28.5032 47.6001 29.4604C47.6001 30.4176 47.6001 31.3749 47.6001 32.3321C47.4837 32.4322 47.3667 32.5323 47.2503 32.6324C46.9031 32.9308 46.8807 32.933 44.1053 32.933C43.1736 32.933 42.2418 32.933 41.3098 32.933C41.1742 32.812 41.0388 32.6907 40.903 32.5697C40.7671 32.4487 40.6315 32.3279 40.4959 32.2069C40.482 31.2905 40.4683 30.3743 40.4543 29.4582C40.4406 28.5418 40.4264 27.6256 40.4124 26.7092C40.5341 26.5882 40.6552 26.4669 40.7766 26.3454Z" fill="white"/>
<path d="M30.9709 32.2593C31.0988 32.1517 31.2264 32.0443 31.3545 31.9368C32.2783 31.9368 33.2021 31.9368 34.1259 31.9368C35.0497 31.9368 35.9735 31.9368 36.8972 31.9368C37.0089 32.0531 37.1203 32.1696 37.2323 32.2859C37.3439 32.4024 37.4554 32.5187 37.567 32.6353C37.567 33.5596 37.567 34.484 37.567 35.4084C37.567 36.3327 37.567 37.2571 37.567 38.1814C37.4456 38.3027 37.324 38.424 37.2026 38.5453C37.0815 38.6668 36.9598 38.7881 36.8384 38.9093C35.9291 38.9093 35.0198 38.9093 34.1107 38.9093C33.2014 38.9093 32.292 38.9093 31.3827 38.9093C31.2503 38.7798 31.1177 38.6506 30.9851 38.5209C30.8525 38.3916 30.7199 38.2621 30.5875 38.1329C30.5875 37.2075 30.5875 36.2822 30.5875 35.3571C30.5875 34.4317 30.5875 33.5068 30.5875 32.5815C30.7154 32.4742 30.8433 32.3666 30.9709 32.2593Z" fill="white"/>
<path d="M29.4287 23.0073C29.4581 22.8556 29.651 22.5894 29.8574 22.4158C30.2323 22.1006 30.235 22.1003 32.7878 22.1003C33.6393 22.1003 34.4913 22.1003 35.3428 22.1003C35.4642 22.2216 35.5858 22.3429 35.707 22.4644C35.8284 22.5857 35.95 22.707 36.0714 22.8282C36.0714 23.7202 36.0714 24.612 36.0714 25.5037C36.0714 26.3954 36.0714 27.2872 36.0714 28.1792C35.9435 28.2865 35.8159 28.3941 35.688 28.5014C35.5599 28.609 35.4325 28.7163 35.3044 28.8239C34.4788 28.8239 33.653 28.8239 32.8272 28.8239C31.2401 28.8239 30.238 28.7728 30.0386 28.6819C29.4401 28.4098 29.3394 27.9401 29.3581 25.5057C29.3676 24.2832 29.3993 23.1592 29.4287 23.0073Z" fill="white"/>
<path d="M39.2698 16.4196C39.3002 16.2742 39.467 16.0219 39.6403 15.8593C39.9516 15.5672 39.9867 15.5637 42.622 15.5637C43.5109 15.5637 44.4 15.5637 45.2887 15.5637C45.4038 15.6788 45.5192 15.7936 45.6344 15.9086C45.7496 16.0239 45.8647 16.1385 45.9799 16.2538C45.9933 17.0663 46.0073 17.8794 46.0208 18.6922C46.0494 20.4072 46.0168 21.2391 45.9101 21.4959C45.6202 22.1951 45.4848 22.225 42.5941 22.225C39.9965 22.225 39.9431 22.2198 39.6081 21.9322C39.4944 21.8345 39.381 21.7367 39.2673 21.6391C39.2584 20.8133 39.2497 19.9876 39.2409 19.1618C39.2262 17.7992 39.2392 16.5653 39.2698 16.4196Z" fill="white"/>
<path d="M2.66953 38.1624C1.88159 37.2308 0.245151 34.5581 0.380255 34.4234C0.441325 34.3623 0.813979 34.4241 1.23624 34.5653C1.64753 34.7028 2.47485 34.952 3.07459 35.1191C3.43827 35.2207 3.80146 35.3218 4.16514 35.4232C4.24391 35.732 5.6944 35.9977 11.3079 36.7318C11.6876 36.7816 11.8892 36.864 11.8578 36.9571C11.8067 37.1093 11.7347 37.125 10.7353 37.2022C10.2306 37.2413 10.1518 37.2816 10.2219 37.4639C10.2812 37.6183 10.2291 37.699 10.0391 37.7485C9.89307 37.7866 9.77293 37.9096 9.77193 38.0212C9.76894 38.3317 9.45237 39.1734 9.30405 39.2651C9.2183 39.3181 9.20834 39.5397 9.27564 39.906C9.36089 40.37 9.3402 40.5017 9.15524 40.6743C8.9653 40.8516 8.95283 40.9472 9.06974 41.3207C9.14527 41.5618 9.30655 41.7849 9.42794 41.8168C9.54958 41.8484 9.65078 41.9776 9.65328 42.1039C9.65826 42.3845 9.99602 42.8039 10.3844 43.0116C10.586 43.1194 10.6334 43.2053 10.5419 43.2967C10.2455 43.5928 6.02244 40.7101 4.69957 39.3086C4.13698 38.713 4.06369 38.8651 4.60261 39.5098C4.74768 39.6834 4.8925 39.8565 5.03758 40.03C4.69483 39.7198 4.35209 39.4092 4.00935 39.0992C3.44376 38.587 2.91107 38.1669 2.66953 38.1624Z" fill="white"/>
<path d="M0.158114 33.1365C0.710492 32.6372 2.95241 31.9096 5.16218 31.5127C6.40353 31.2893 9.02882 30.9409 9.46853 30.9409C9.56998 30.9409 9.67193 30.9409 9.77364 30.9409C9.77364 31.6671 9.77364 32.3937 9.77364 33.1198C9.77364 33.846 9.77364 34.5726 9.77364 35.2988C9.53459 35.298 9.29604 35.297 9.05699 35.2963C8.2005 35.2933 5.05374 34.9825 3.98837 34.7955C2.31553 34.5022 0.119976 33.7875 0.00979909 33.5006C-0.0263448 33.4067 0.0407087 33.2429 0.158114 33.1365Z" fill="white"/>
<path d="M23.3587 48.9948C23.3587 48.7762 22.5022 48.4383 21.1682 48.1305C20.117 47.8877 19.5539 47.6526 19.6038 47.4768C19.6292 47.3872 19.6646 46.9073 19.6825 46.4105C19.7007 45.9135 19.7767 45.4331 19.8515 45.3427C19.9266 45.2523 20.0063 44.8656 20.0285 44.4831C20.0509 44.1006 20.1374 43.7057 20.2207 43.6056C20.304 43.5054 20.3369 43.3324 20.294 43.2208C20.1013 42.719 20.5268 43.1187 21.4366 44.2941C22.5077 45.6779 24.2823 47.5007 24.5582 47.5007C24.6153 47.5007 24.6726 47.5007 24.7297 47.5007C25.6854 48.2064 26.6406 48.9117 27.5963 49.6174C27.2583 49.7205 26.7256 49.6645 26.1942 49.5594C25.8724 49.4959 25.55 49.4319 25.2282 49.3684C24.6051 49.2439 23.9819 49.1194 23.3587 48.9948Z" fill="white"/>
<path d="M22.1124 44.1387C21.138 42.9758 20.889 42.5836 20.9301 42.5171C21.0438 42.3333 21.9372 42.3717 22.0995 42.5669C22.1777 42.6608 22.4761 42.7756 22.763 42.8211C23.0497 42.8672 23.3647 42.972 23.4635 43.0547C23.6806 43.2365 25.2592 43.5256 26.2877 43.5719C26.6989 43.5906 27.7364 43.6967 28.5934 43.808C30.0364 43.9955 30.1909 43.9953 30.6887 43.8058C31.2115 43.6065 31.2329 43.6083 31.4677 43.8698C31.5482 43.9594 31.6287 44.0491 31.7092 44.1387C31.7142 44.1698 31.719 44.201 31.7242 44.2321C31.7322 44.2834 31.6342 44.4194 31.5061 44.5339C31.3306 44.6908 30.8268 44.7784 29.4658 44.8888C28.4717 44.9689 27.5185 45.0329 27.347 45.0309C25.5713 45.0085 24.9867 44.963 24.6674 44.8223C24.1203 44.581 23.5764 44.4355 22.1124 44.1387Z" fill="white"/>
<path d="M41.4307 49.8662C40.8905 50.1152 40.3506 50.3642 39.8104 50.6132C39.0753 50.8027 38.163 51.2191 37.3093 51.6606C35.763 52.4605 35.7548 52.463 35.1354 52.3332C34.7934 52.2618 34.4447 52.1477 34.3602 52.08C34.1186 51.8855 34.3918 51.5177 34.8532 51.4163C35.0756 51.3675 35.3146 51.2555 35.3842 51.1671C35.4537 51.0784 35.7939 50.8478 36.1404 50.6541C37.2018 50.0607 38.5486 49.1383 39.1135 48.6183C39.2924 48.4535 39.4714 48.2889 39.6504 48.1238C40.0509 48.2067 40.4515 48.2899 40.8521 48.3726C41.2527 48.4552 41.6533 48.5384 42.0538 48.6211C42.3258 48.9996 42.3106 49.0621 42.1196 49.1717C41.991 49.2454 41.7834 49.4321 41.6582 49.586C41.5825 49.6794 41.5064 49.7728 41.4307 49.8662Z" fill="white"/>
<path d="M24.897 50.3301C25.423 49.8177 25.5673 49.7422 26.0187 49.7447C26.8635 49.7497 27.4946 49.9476 29.1151 50.7161C29.9592 51.1163 30.8463 51.518 31.0861 51.6088C31.3259 51.6995 31.5722 51.817 31.6327 51.8703C31.7763 51.9961 31.4151 52.3564 31.1459 52.3564C31.0318 52.3564 30.796 52.4685 30.6217 52.6054C30.2306 52.9125 29.2029 52.9513 28.9673 52.6677C28.8641 52.5437 28.5772 52.4792 28.1108 52.4757C27.5313 52.4715 27.3418 52.4122 27.0203 52.1333C26.8062 51.948 26.595 51.6788 26.5507 51.5351C26.4991 51.3676 26.281 51.2147 25.9425 51.1081C25.6526 51.0167 25.3452 50.8892 25.2595 50.8247C25.1588 50.7487 25.0396 50.7604 24.9227 50.8573C24.8232 50.94 24.641 50.9873 24.5176 50.9629C24.3374 50.927 24.4122 50.803 24.897 50.3301Z" fill="white"/>
<path d="M24.7614 38.1209C24.8471 38.0036 25.1178 37.8751 25.3626 37.8355C25.7208 37.7773 25.8783 37.8236 26.1685 38.0731C26.4793 38.3401 26.5058 38.4105 26.3619 38.5836C26.2246 38.7489 26.2236 38.8194 26.3572 38.9803C26.4464 39.0876 26.6182 39.1499 26.7388 39.1182C26.8889 39.0791 27.0654 39.2154 27.2974 39.5503C27.6863 40.1108 27.5888 40.3686 27.0865 40.1081C26.9121 40.0177 26.6262 39.9079 26.4512 39.8641C26.2762 39.8202 25.9825 39.5874 25.7988 39.3468C25.5795 39.0595 25.3614 38.9093 25.1639 38.9093C24.9939 38.9093 24.807 38.8045 24.734 38.6685C24.5734 38.3684 24.5727 38.3784 24.7614 38.1209Z" fill="white"/>
<path d="M43.5495 48.6211C43.817 48.8318 43.5183 49.0073 42.6459 49.3664C42.2408 49.5328 41.8358 49.6996 41.4307 49.8662C41.5065 49.7728 41.5825 49.6794 41.6583 49.586C41.7834 49.4322 41.9911 49.2454 42.1197 49.1717C42.3106 49.0621 42.3258 48.9996 42.0539 48.6211C42.3032 48.6211 42.5524 48.6211 42.8017 48.6211C43.051 48.6211 43.3002 48.6211 43.5495 48.6211Z" fill="white"/>
<path d="M37.3674 72.6919C37.477 72.734 37.567 72.8278 37.567 72.9006C37.567 73.0828 37.2014 73.2076 37.0653 73.0716C36.8982 72.9045 37.1378 72.6037 37.3674 72.6919Z" fill="white"/>
<path d="M38.0029 74.6438C38.0371 74.6438 38.0649 74.6717 38.0649 74.7061C38.0649 74.7404 38.0371 74.7683 38.0029 74.7683C37.9687 74.7683 37.9409 74.7404 37.9409 74.7061C37.9409 74.6717 37.9687 74.6438 38.0029 74.6438Z" fill="white"/>
<path d="M26.1006 92.0751C29.8282 85.8229 30.923 84.0656 31.337 83.6686C31.4664 83.5449 31.5955 83.4209 31.7249 83.2971C32.4116 83.2839 33.0986 83.2707 33.7853 83.2575C35.6212 83.2219 35.8725 83.2421 36.0913 83.4396C36.4251 83.7414 37.998 86.2898 38.3796 87.1474C38.4825 87.3788 38.5857 87.6104 38.6887 87.8417C38.6887 88.0492 38.6887 88.2568 38.6887 88.4643C38.6887 90.1213 38.5424 90.9301 38.0693 91.8883C37.6754 92.6859 35.7182 94.9719 34.8442 95.6547C34.6717 95.7897 34.499 95.9244 34.3265 96.0594C33.8225 96.4025 33.3185 96.7454 32.8144 97.0886C32.9627 97.2106 33.1108 97.3326 33.2589 97.4547C33.5032 97.6561 33.7033 97.9006 33.7033 97.9985C33.7033 98.0961 33.7734 98.178 33.8591 98.1805C34.1144 98.188 34.7004 99.2304 34.7004 99.6764C34.7004 99.902 34.7966 100.193 34.9143 100.323C35.0319 100.452 35.1411 100.737 35.1568 100.955C35.1725 101.173 35.2326 101.547 35.2902 101.787C35.3769 102.148 35.4582 102.23 35.7643 102.265C35.9674 102.288 36.2027 102.364 36.287 102.434C36.3967 102.524 36.6881 102.397 37.3152 101.987C37.6066 101.796 37.8985 101.605 38.1902 101.413C40.0412 100.22 40.7142 99.7994 40.88 99.7093C40.9805 99.6547 41.0809 99.6002 41.1814 99.5457C40.8803 99.7872 40.5789 100.029 40.2778 100.27C39.7807 100.669 38.5329 101.544 37.5047 102.214C35.2204 103.704 33.4992 105.067 32.8114 105.931C31.5828 107.475 31.2059 109.123 31.7092 110.752C31.678 110.753 31.6469 110.754 31.6157 110.755C31.4342 110.762 31.3248 110.049 31.2712 108.51C31.2029 106.546 31.2094 106.627 31.092 106.331C30.7744 105.533 30.2382 104.437 29.9955 104.092C29.8414 103.873 29.715 103.634 29.715 103.561C29.715 103.489 29.4486 103.273 29.123 103.083C28.7975 102.892 28.4286 102.607 28.3039 102.448C27.9091 101.948 27.5225 102.069 27.1398 102.814C26.9551 103.173 26.7009 103.804 26.5753 104.215C26.3714 104.881 26.3534 104.905 26.4117 104.434C26.5802 103.071 27.6471 101.232 29.2025 99.6224C29.7243 99.0822 30.9364 98.054 31.8961 97.3371C32.8558 96.6204 33.9775 95.7172 34.3888 95.3305C34.8001 94.9438 35.333 94.4492 35.5728 94.2313C35.7182 94.0991 35.8637 93.9669 36.0091 93.8349C35.874 93.8563 35.7391 93.8775 35.604 93.8986C35.2877 93.9487 35.1989 93.9183 35.1989 93.7614C35.1989 93.6441 34.9783 93.4641 34.6692 93.3296C34.3778 93.2026 34.069 92.9805 33.9828 92.8361C33.8965 92.6914 33.7168 92.5731 33.5834 92.5731C33.4503 92.5731 33.2123 92.5225 33.055 92.4605C32.8974 92.3983 32.4321 92.2803 32.0208 92.1981C31.6095 92.1157 31.0244 91.97 30.7211 91.8748C30.4175 91.7795 30.0022 91.7015 29.7983 91.7015C29.5946 91.7015 29.0684 91.532 28.6292 91.3245C27.9978 91.0264 27.8455 90.9017 27.9011 90.7269C27.9397 90.6051 27.8941 90.4002 27.7994 90.2709C27.6406 90.054 27.5808 90.1125 26.995 91.0558C26.647 91.6164 26.3033 92.0751 26.1006 92.0751Z" fill="white"/>
<path d="M22.8602 99.6704C23.4636 96.9347 23.9562 95.6801 25.3414 93.3515C25.5944 92.9262 25.8476 92.5006 26.1007 92.0753C26.3033 92.0753 26.6471 91.6166 26.995 91.0561C27.5808 90.1128 27.6406 90.0543 27.7994 90.2712C27.8941 90.4004 27.9398 90.6053 27.9011 90.7271C27.8455 90.9019 27.9978 91.0267 28.6292 91.3248C29.0684 91.5322 29.5946 91.7018 29.7983 91.7018C30.0022 91.7018 30.4175 91.7797 30.7211 91.8751C31.0245 91.9702 31.6095 92.1159 32.0208 92.1983C32.4321 92.2805 32.8974 92.3985 33.055 92.4608C33.2123 92.5228 33.4503 92.5733 33.5834 92.5733C33.7168 92.5733 33.8965 92.6916 33.9828 92.8363C34.069 92.9808 34.3779 93.2029 34.6692 93.3299C34.9783 93.4643 35.1989 93.6444 35.1989 93.7617C35.1989 93.9185 35.2877 93.9489 35.604 93.8989C35.7391 93.8777 35.874 93.8566 36.0091 93.8351C35.8637 93.9671 35.7182 94.0993 35.5728 94.2316C35.333 94.4495 34.8001 94.944 34.3888 95.3307C33.9775 95.7175 32.8558 96.6207 31.8961 97.3373C30.9365 98.0543 29.7243 99.0825 29.2025 99.6226C27.6471 101.232 26.5802 103.072 26.4117 104.434C26.3534 104.905 26.3714 104.881 26.5753 104.215C26.7009 103.804 26.9551 103.174 27.1399 102.814C27.5225 102.07 27.9091 101.948 28.3039 102.449C28.4286 102.607 28.7975 102.892 29.123 103.083C29.4486 103.273 29.715 103.489 29.715 103.561C29.715 103.634 29.8414 103.873 29.9955 104.093C30.2383 104.438 30.7744 105.533 31.092 106.332C31.2094 106.627 31.2029 106.546 31.2712 108.511C31.3248 110.05 31.4342 110.763 31.6157 110.755C31.6469 110.754 31.678 110.753 31.7092 110.752C32.21 111.572 32.3503 111.852 32.3438 111.904C32.3401 111.935 32.3361 111.966 32.3324 111.997C29.9027 111.468 28.0696 110.731 27.1912 109.932C27.0354 109.79 26.8796 109.648 26.7238 109.507C26.6376 109.269 26.5511 109.032 26.4646 108.795C26.0677 107.704 25.9102 106.103 26.0722 104.806C26.2278 103.564 26.5573 102.666 27.2433 101.617C27.8204 100.735 27.8592 100.444 27.3211 101.036C27.0344 101.351 26.9133 101.418 26.8716 101.285C26.7866 101.012 25.4852 99.4214 25.3474 99.4214C25.2821 99.4214 25.226 99.3233 25.2235 99.2035C25.2145 98.8098 24.4191 97.6185 24.1377 97.5774C23.9824 97.5545 23.8513 97.426 23.8199 97.2661C23.7877 97.101 23.588 97.6195 22.8602 100.168C22.8602 100.002 22.8602 99.8365 22.8602 99.6704Z" fill="white"/>
<path d="M43.4248 96.0593C44.3568 97.3383 45.0416 100.327 44.8491 102.273C44.6016 104.775 43.5368 107.015 41.7171 108.862C39.5983 111.013 37.0695 112.007 33.7345 112C33.2672 111.999 32.7998 111.998 32.3324 111.997C32.3361 111.965 32.3401 111.934 32.3439 111.903C32.3503 111.852 32.21 111.572 31.7092 110.752C31.206 109.123 31.5829 107.475 32.8115 105.931C33.4992 105.067 35.2204 103.704 37.5047 102.214C38.5329 101.543 39.7808 100.669 40.2778 100.27C40.5789 100.028 40.8803 99.7872 41.1814 99.5456C42.431 98.2604 43.1683 97.1819 43.3545 96.3666C43.378 96.264 43.4014 96.1617 43.4248 96.0593Z" fill="white"/>
<path d="M43.4248 95.9347C43.4248 95.9763 43.4248 96.0176 43.4248 96.0592C43.4013 96.1616 43.3779 96.2639 43.3545 96.3665C43.1683 97.1818 42.4309 98.2603 41.1814 99.5455C41.0809 99.6 40.9804 99.6546 40.88 99.7091C40.7142 99.7993 40.0412 100.219 38.1901 101.413C38.1485 101.353 38.1071 101.292 38.0655 101.231C37.997 101.132 37.9157 100.854 37.885 100.616C37.8544 100.376 37.7357 100 37.621 99.7788C37.3648 99.2838 36.4801 98.1495 36.2443 98.014C36.1491 97.9592 36.0714 97.759 36.0714 97.5688C36.0714 97.1151 35.763 96.8484 34.3265 96.0592C34.499 95.9243 34.6717 95.7895 34.8442 95.6546C35.7181 94.9718 37.6754 92.6857 38.0692 91.8881C38.5424 90.9299 38.6887 90.1211 38.6887 88.4641C38.7111 88.7027 38.733 88.9415 38.7555 89.18C38.8392 90.078 38.5391 91.6919 38.1749 92.3025C38.0249 92.5538 37.7115 92.9614 37.4782 93.2077C37.3371 93.3571 37.1958 93.5065 37.0545 93.6559C37.1594 93.7244 37.2641 93.7929 37.3688 93.8614C37.5415 93.9747 37.7766 94.0671 37.891 94.0671C38.0057 94.0671 38.2223 94.1931 38.3726 94.3472C38.5232 94.5014 38.7677 94.7247 38.9165 94.844C39.0653 94.963 39.1872 95.1665 39.1872 95.2957C39.1872 95.425 39.2712 95.6005 39.3742 95.6857C39.4771 95.7709 39.5611 95.9135 39.5611 96.0027C39.5611 96.184 40.0322 96.8364 40.4934 97.2939C40.6601 97.4592 40.8299 97.7394 40.8705 97.9164C40.9899 98.4366 41.4104 98.8719 41.6487 98.7217C42.0922 98.4426 42.9195 97.0409 43.0003 96.4328C43.0578 96.0005 43.1291 95.8443 43.4248 95.9347Z" fill="white"/>
<path d="M38.6887 87.8418C39.1982 88.29 39.3169 88.4681 40.3471 90.332C40.8578 91.2564 41.5149 92.4332 41.8071 92.9467C42.0995 93.4602 42.5828 94.3427 42.8816 94.9077C43.0629 95.2501 43.2438 95.5925 43.4248 95.9349C43.1292 95.8446 43.0579 96.0007 43.0003 96.433C42.9195 97.0411 42.0922 98.4428 41.6488 98.722C41.4105 98.8721 40.99 98.4369 40.8706 97.9167C40.8299 97.7396 40.6602 97.4595 40.4934 97.2941C40.0323 96.8367 39.5612 96.1842 39.5612 96.0029C39.5612 95.9138 39.4771 95.7711 39.3742 95.6859C39.2713 95.6008 39.1873 95.4252 39.1873 95.296C39.1873 95.1667 39.0654 94.9633 38.9165 94.8442C38.7677 94.725 38.5232 94.5016 38.3726 94.3474C38.2223 94.1933 38.0057 94.0673 37.8911 94.0673C37.7766 94.0673 37.5416 93.9749 37.3688 93.8616C37.2642 93.7931 37.1594 93.7246 37.0545 93.6562C37.1958 93.5068 37.3372 93.3573 37.4783 93.2079C37.7116 92.9617 38.0249 92.554 38.175 92.3027C38.5392 91.6921 38.8393 90.0782 38.7555 89.1803C38.7331 88.9417 38.7111 88.7029 38.6887 88.4643C38.6887 88.2569 38.6887 88.0492 38.6887 87.8418Z" fill="white"/>
<path d="M26.7238 109.507C25.5478 108.397 24.9321 107.659 24.5971 107.151C23.4185 105.365 22.8602 103.502 22.8602 101.356C22.8602 100.96 22.8602 100.564 22.8602 100.168C23.588 97.6193 23.7877 97.1008 23.8199 97.2659C23.8513 97.4258 23.9824 97.5543 24.1377 97.5772C24.4191 97.6183 25.2145 98.8096 25.2235 99.2033C25.226 99.3231 25.2821 99.4212 25.3474 99.4212C25.4852 99.4212 26.7866 101.012 26.8716 101.284C26.9133 101.418 27.0344 101.351 27.3211 101.035C27.8592 100.444 27.8204 100.735 27.2433 101.617C26.5573 102.666 26.2278 103.564 26.0722 104.806C25.9102 106.102 26.0677 107.704 26.4646 108.794C26.5511 109.032 26.6376 109.269 26.7238 109.507Z" fill="white"/>
<path d="M34.3265 96.0593C35.763 96.8485 36.0714 97.1152 36.0714 97.5689C36.0714 97.7591 36.1492 97.9593 36.2444 98.0141C36.4802 98.1496 37.3648 99.2839 37.6211 99.7789C37.7358 100 37.8544 100.377 37.8851 100.616C37.9157 100.854 37.997 101.132 38.0655 101.231C38.1072 101.292 38.1485 101.353 38.1902 101.413C37.8985 101.605 37.6066 101.795 37.3152 101.987C36.6881 102.397 36.3967 102.524 36.287 102.433C36.2028 102.364 35.9674 102.288 35.7643 102.265C35.4582 102.23 35.3769 102.148 35.2902 101.787C35.2326 101.547 35.1725 101.173 35.1568 100.955C35.1411 100.737 35.0319 100.452 34.9143 100.323C34.7966 100.193 34.7004 99.902 34.7004 99.6763C34.7004 99.2304 34.1144 98.188 33.8591 98.1805C33.7734 98.178 33.7033 98.0961 33.7033 97.9984C33.7033 97.9006 33.5032 97.656 33.2589 97.4546C33.1108 97.3326 32.9628 97.2105 32.8145 97.0885C33.3185 96.7454 33.8225 96.4025 34.3265 96.0593Z" fill="white"/>
</svg>
