<svg width="118" height="26" viewBox="0 0 118 26" fill="none" xmlns="http://www.w3.org/2000/svg">
<path d="M2.64024 0.0585237C5.25257 0.116545 5.28273 0.120274 5.47567 0.412873C5.89768 1.05285 9.93957 6.74994 10.9042 8.06427C11.2562 8.54363 12.8585 10.7828 14.465 13.0402C15.4389 14.4083 16.4126 15.7767 17.3865 17.145C17.3972 14.3201 17.4079 11.4955 17.4186 8.67088C17.4293 5.84624 17.4398 3.02161 17.4505 0.196979C18.2499 0.170085 19.0496 0.143189 19.849 0.116295C21.1679 0.0719694 22.3733 0.0697292 22.5276 0.111067C22.6211 0.136467 22.7146 0.161614 22.808 0.186765C22.808 4.37453 22.808 8.56255 22.808 12.7503C22.808 16.9381 22.808 21.1259 22.808 25.3136C21.9089 25.3027 21.0096 25.2915 20.1104 25.2803C19.2111 25.2691 18.3117 25.2579 17.4126 25.2466C16.5656 24.0845 15.7186 22.9225 14.8716 21.7604C13.4739 19.8429 10.7823 16.1029 8.8899 13.4493C6.9977 10.7958 5.41511 8.62456 5.37323 8.62456C5.33135 8.62456 5.31166 12.3785 5.32986 16.9667C5.34082 19.7475 5.35178 22.5281 5.36275 25.3089C4.46887 25.3089 3.57501 25.3089 2.68138 25.3089C1.78776 25.3089 0.893876 25.3089 0 25.3089C0 21.0908 0 16.8726 0 12.6544C0 8.4363 0 4.21815 0 0C0.880166 0.0196726 1.76033 0.0391001 2.64024 0.0585237Z" fill="#1B384E"/>
<path d="M89.5496 8.50015C90.4013 8.50015 91.2528 8.50015 92.1046 8.50015C92.1046 8.87368 92.1046 9.24721 92.1046 9.62074C92.1046 10.2371 92.1417 10.7413 92.1868 10.7413C92.2322 10.7413 92.5857 10.4395 92.9725 10.071C94.3522 8.75614 96.1619 8.1804 98.5855 8.28524C100.574 8.3709 101.588 8.74992 102.644 9.80153C103.059 10.2156 103.48 10.6833 103.579 10.8407C103.638 10.9361 103.698 11.0314 103.758 11.1268C104.03 10.8611 104.302 10.5954 104.574 10.3299C105.95 8.98648 107.986 8.25711 110.363 8.25586C113.803 8.25437 115.848 9.66606 116.76 12.6712C116.915 13.1797 116.958 14.3962 116.999 19.3014C117.015 21.304 117.032 23.3064 117.049 25.309C116.155 25.309 115.261 25.309 114.367 25.309C113.474 25.309 112.58 25.309 111.687 25.309C111.671 23.5347 111.656 21.7605 111.64 19.9862C111.589 14.0906 111.59 14.0959 110.775 13.1713C110.196 12.5141 109.461 12.2354 108.307 12.2354C107.152 12.2354 106.381 12.5288 105.67 13.239C104.67 14.2381 104.644 14.4218 104.667 20.2975C104.674 21.9679 104.68 23.6386 104.687 25.309C103.797 25.309 102.909 25.309 102.019 25.309C101.13 25.309 100.241 25.309 99.352 25.309C99.3386 23.5347 99.3246 21.7605 99.3109 19.9862C99.27 14.6995 99.2675 14.6589 98.9749 14.0107C98.2219 12.3425 96.4725 11.7396 94.4165 12.4394C93.5937 12.7193 92.8272 13.4995 92.5263 14.3633C92.31 14.9836 92.2928 15.4428 92.3055 20.173C92.31 21.885 92.3147 23.597 92.3194 25.309C91.4321 25.309 90.5447 25.309 89.657 25.309C88.7694 25.309 87.8822 25.309 86.9946 25.309C86.9946 22.5075 86.9946 19.706 86.9946 16.9046C86.9946 14.1031 86.9946 11.3016 86.9946 8.50015C87.8463 8.50015 88.6978 8.50015 89.5496 8.50015Z" fill="#1B384E"/>
<path d="M25.8045 15.3777C26.1934 13.2159 27.3428 11.2572 28.9151 10.076C31.8615 7.86351 36.6272 7.43643 39.8206 9.09914C41.0777 9.75357 42.3382 11.0597 42.9928 12.387C43.6471 13.7127 43.8665 14.7883 43.869 16.6865C43.87 17.195 43.8705 17.7033 43.8712 18.2118C41.7343 18.2118 39.597 18.2118 37.4598 18.2118C33.9339 18.2118 31.0197 18.2583 30.9848 18.3151C30.8819 18.4812 31.2348 19.6606 31.5305 20.1384C32.3927 21.532 34.5369 22.2763 36.7853 21.9618C37.9611 21.7974 38.8854 21.46 39.8341 20.8484C40.0766 20.6923 40.3192 20.5359 40.5614 20.3797C40.9471 20.8746 41.3322 21.3696 41.7178 21.8644C42.3539 22.6812 42.8742 23.3852 42.8742 23.429C42.8742 23.5727 41.2085 24.5329 40.3815 24.8658C38.8191 25.4954 37.3227 25.7135 35.0222 25.6468C33.2641 25.5962 32.803 25.5389 31.844 25.2538C30.231 24.7737 29.2691 24.1972 28.0998 23.0094C27.0152 21.908 26.3634 20.7904 25.9912 19.3946C25.7477 18.48 25.6447 16.2667 25.8045 15.3777ZM39.0033 13.9067C38.6658 13.0299 38.0104 12.3132 37.1689 11.9004C36.527 11.5856 36.3306 11.5512 35.2092 11.5572C34.1453 11.5632 33.8614 11.6105 33.2706 11.8822C32.89 12.057 32.3737 12.3797 32.1235 12.5991C31.587 13.0698 30.9093 14.3545 30.9093 14.9011C30.9093 15.0293 30.9093 15.1575 30.9093 15.2858C32.3009 15.2858 33.6929 15.2858 35.0845 15.2858C36.4762 15.2858 37.8681 15.2858 39.2598 15.2858C39.2575 15.1613 39.2553 15.0368 39.2533 14.9123C39.2498 14.7068 39.1374 14.2543 39.0033 13.9067Z" fill="#1B384E"/>
<path d="M67.6763 8.5C68.5487 8.5 69.4212 8.5 70.2936 8.5C70.2938 10.2534 70.2941 12.0069 70.2943 13.7605C70.2948 17.0003 70.3447 19.1994 70.424 19.4848C70.6343 20.242 71.2745 20.9739 72.0756 21.3741C72.6656 21.6687 72.9635 21.7362 73.6958 21.7414C75.3829 21.7538 76.4238 21.1868 77.0849 19.8964C77.2098 19.6521 77.3352 19.4078 77.4601 19.1638C77.4725 17.3865 77.485 15.609 77.4974 13.832C77.5099 12.0545 77.5224 10.2773 77.5346 8.5C78.405 8.5 79.2757 8.5 80.1459 8.5C81.0164 8.5 81.8868 8.5 82.757 8.5C82.757 11.3015 82.757 14.103 82.757 16.9044C82.757 19.7059 82.757 22.5074 82.757 25.3089C81.9469 25.3089 81.1368 25.3089 80.3266 25.3089C79.5165 25.3089 78.7064 25.3089 77.8963 25.3089C77.8963 24.9147 77.8963 24.5202 77.8963 24.126C77.8963 23.0206 77.7654 22.6234 77.5864 23.1865C77.4812 23.5176 76.1322 24.5197 75.2166 24.9468C73.5612 25.719 70.7405 25.8853 68.9149 25.3183C67.089 24.7511 65.5986 23.1098 65.1991 21.2252C65.1063 20.7889 65.059 18.5208 65.059 14.5328C65.059 12.5217 65.059 10.5108 65.059 8.5C65.9314 8.5 66.8038 8.5 67.6763 8.5Z" fill="#1B384E"/>
<path d="M45.3872 23.3695C46.1457 22.416 47.6339 20.5267 48.6945 19.171C50.5269 16.8287 50.6136 16.6925 50.4424 16.4318C50.0797 15.8785 47.0336 12.0007 45.6592 10.3418C44.8815 9.40319 44.2451 8.60459 44.2451 8.56748C44.2451 8.53038 45.549 8.5005 47.1428 8.50074C48.1087 8.50124 49.0747 8.50174 50.0406 8.50174C50.4145 8.98857 50.7884 9.47516 51.1623 9.962C51.7792 10.7651 52.6434 11.9051 53.0829 12.4953C53.3494 12.8531 53.6156 13.211 53.8818 13.5688C54.4868 12.7239 55.0917 11.8792 55.6967 11.0345C56.3017 10.1896 56.9064 9.34468 57.5114 8.5C58.4369 8.5 59.3627 8.5 60.2882 8.5C61.8153 8.5 63.0648 8.5371 63.0648 8.58267C63.0648 8.628 62.7383 9.06204 62.3392 9.54763C61.9401 10.033 60.891 11.3543 60.0078 12.4843C59.1247 13.6144 58.0147 15.0017 57.5411 15.5672C56.9254 16.3023 56.7145 16.6395 56.8015 16.75C57.7943 18.0106 60.4762 21.3584 61.8292 23.0271C62.7832 24.2029 63.5634 25.1975 63.5634 25.2371C63.5634 25.2765 62.2263 25.3089 60.5923 25.3089C57.633 25.3089 57.6206 25.3076 57.4897 25.0287C57.4172 24.8746 56.5906 23.7119 55.6523 22.4451C54.7141 21.1784 53.8982 20.0578 53.8397 19.9549C53.7041 19.7179 53.8616 19.5318 51.5422 22.663C50.8888 23.545 50.2355 24.4268 49.5822 25.3089C48.6743 25.3089 47.7665 25.3089 46.8587 25.3089C45.3608 25.3089 44.1065 25.2625 44.0716 25.206C44.0367 25.1497 44.6285 24.3232 45.3872 23.3695Z" fill="#1B384E"/>
<path d="M39.0032 13.9067C39.1373 14.2544 39.2498 14.7068 39.2532 14.9123C39.2552 15.0368 39.2575 15.1613 39.2597 15.2858C37.8681 15.2858 36.4761 15.2858 35.0845 15.2858C33.6928 15.2858 32.3009 15.2858 30.9092 15.2858C30.9092 15.1576 30.9092 15.0293 30.9092 14.9011C30.9092 14.3545 31.587 13.0698 32.1234 12.5991C32.3737 12.3797 32.8899 12.057 33.2706 11.8822C33.8613 11.6105 34.1452 11.5632 35.2091 11.5572C36.3306 11.5513 36.527 11.5856 37.1689 11.9004C38.0104 12.3133 38.6657 13.0299 39.0032 13.9067Z" fill="#F4F4F4"/>
</svg>
