<svg xmlns="http://www.w3.org/2000/svg" viewBox="0 0 24 24" role="img" aria-label="spotify">
  <circle cx="12" cy="12" r="11" fill="#000000" />
  <path d="M6.7 9.6c3.8-1.1 7.7-.8 11.5 1 .5.2 1.1 0 1.3-.5.2-.5 0-1.1-.5-1.3-4.3-2-8.7-2.4-12.9-1.1-.5.2-.8.7-.7 1.3.2.5.7.8 1.3.6Z" fill="#ffffff"/>
  <path d="M7.5 12.8c3.1-.9 6.2-.6 9.2.8.5.2 1 0 1.2-.4.2-.5 0-1-.4-1.2-3.4-1.6-6.9-1.9-10.5-.9-.5.1-.8.7-.7 1.2.1.5.7.8 1.2.7Z" fill="#ffffff"/>
  <path d="M8.4 15.8c2.4-.7 4.8-.4 7.2.7.4.2.9 0 1.1-.4.2-.4 0-.9-.4-1.1-2.7-1.3-5.5-1.6-8.3-.8-.4.1-.7.6-.6 1 .1.5.6.8 1 .6Z" fill="#ffffff"/>
</svg>
